<svg width="58" height="26" viewBox="0 0 58 26" fill="none" xmlns="http://www.w3.org/2000/svg">
<path d="M35.5703 0.347137C33.9598 0.347137 32.3932 0.661213 31.0051 1.19675C30.4676 1.40555 30.3274 1.6212 30.3216 2.0388V24.6799C30.3274 25.1169 30.6628 25.4549 31.0882 25.4993C31.1056 25.5013 50.8633 25.4993 50.8633 25.4993C54.8034 25.4993 57.9962 22.3405 57.9962 18.4004C57.9982 14.4583 54.8072 11.2637 50.8671 11.2637C49.8907 11.2637 48.9555 11.4611 48.1068 11.8188C47.5403 5.39042 42.1456 0.347137 35.5703 0.347137ZM28.8641 2.01615C28.6765 2.01615 28.5028 2.08526 28.3694 2.1974C28.1954 2.34046 28.0825 2.55612 28.0786 2.79779V2.88086L27.7577 18.8724L27.9201 21.8253L28.0786 24.7026C28.0844 25.1279 28.4386 25.4805 28.8678 25.4805C29.2906 25.4805 29.6434 25.134 29.6533 24.7064V24.6988L30.0007 18.8724L29.6533 2.80157C29.6455 2.51543 29.4905 2.2667 29.2643 2.12943C29.1464 2.0579 29.0091 2.01615 28.8641 2.01615ZM26.4285 3.40195C26.2835 3.40195 26.148 3.44361 26.032 3.51901C25.831 3.64855 25.6961 3.87737 25.6922 4.13451V4.27422L25.4165 18.8648C25.4165 18.8745 25.6922 24.7895 25.6922 24.7895C25.6922 24.7991 25.6922 24.8062 25.6922 24.8159C25.7019 24.9802 25.7654 25.1303 25.8659 25.2501C26.0012 25.4125 26.2061 25.5182 26.4323 25.5182C26.6314 25.5182 26.8144 25.4383 26.9458 25.303C27.0773 25.1715 27.1629 24.9849 27.1648 24.7819L27.1951 24.1966L27.4745 18.8686L27.1648 4.13073C27.159 3.88133 27.0297 3.65803 26.8363 3.52657C26.7184 3.4473 26.5774 3.40195 26.4285 3.40195ZM19.1445 5.09362C18.8236 5.09362 18.5651 5.35217 18.5555 5.67891L18.1892 18.8648L18.5555 24.9178C18.5651 25.2426 18.8236 25.4993 19.1445 25.4993C19.4635 25.4993 19.7182 25.2427 19.7298 24.9141L20.1452 18.8648L19.7298 5.67891C19.7182 5.35024 19.4635 5.09362 19.1445 5.09362ZM21.5536 5.3806C21.2037 5.3806 20.9252 5.65924 20.9155 6.01498L20.5794 18.8686L20.9155 24.8612C20.9232 25.2131 21.2019 25.4918 21.5499 25.4918C21.8966 25.4918 22.1765 25.2113 22.188 24.8574L22.5656 18.8648L22.188 6.0112C22.1803 5.6574 21.9016 5.3806 21.5536 5.3806ZM16.7505 5.57318C16.4586 5.57318 16.224 5.80593 16.2143 6.1056L15.8216 18.8648L16.2143 24.9556C16.2259 25.2533 16.4586 25.488 16.7505 25.488C17.0393 25.488 17.2771 25.2572 17.2905 24.9594V24.9556L17.7361 18.8686L17.2905 6.1056C17.2789 5.80593 17.0405 5.57318 16.7505 5.57318ZM23.9779 5.79974C23.6009 5.79974 23.3002 6.10234 23.2944 6.4832L22.9885 18.8648L23.2944 24.8234C23.3021 25.2024 23.5989 25.5031 23.9779 25.5031C24.3523 25.5031 24.6535 25.2063 24.6651 24.8272V24.8197L25.0087 18.8686L24.6651 6.4832C24.6593 6.1004 24.3549 5.79974 23.9779 5.79974ZM14.3452 6.63802C14.0822 6.63802 13.8659 6.85069 13.8543 7.12135L13.4314 18.8951L13.8543 25.0538C13.8659 25.3225 14.0822 25.5333 14.3452 25.5333C14.605 25.5333 14.8208 25.3189 14.8323 25.05L15.3118 18.8988L14.8323 7.12135C14.8207 6.84876 14.6062 6.63802 14.3452 6.63802ZM12.0267 8.84323C11.7928 8.84323 11.6003 9.03194 11.5887 9.27747L11.1355 18.8611L11.5887 25.0538C11.6022 25.2954 11.7928 25.488 12.0267 25.488C12.2587 25.488 12.4512 25.2974 12.4647 25.0538L12.9783 18.8611L12.4647 9.27747C12.4512 9.03581 12.2587 8.84323 12.0267 8.84323ZM7.37839 12.1775C7.19859 12.1775 7.05207 12.3184 7.03854 12.5098L6.52878 18.8611L7.03854 25.0009C7.05401 25.1904 7.19859 25.337 7.37839 25.337C7.55625 25.337 7.70092 25.1923 7.71445 25.0009L8.29974 18.8611L7.71445 12.5098C7.69899 12.3203 7.55625 12.1775 7.37839 12.1775ZM5.08255 12.3927C4.92789 12.3927 4.80726 12.5116 4.7918 12.6759L4.24805 18.8573L4.7918 24.8121C4.80533 24.9764 4.92982 25.0953 5.08255 25.0953C5.23335 25.0953 5.35213 24.9764 5.36953 24.8121L5.98503 18.8573L5.36953 12.6759C5.3502 12.5135 5.23335 12.3927 5.08255 12.3927ZM9.6931 12.5853C9.4843 12.5853 9.31392 12.75 9.30039 12.9704L8.82083 18.8611L9.30039 25.0538C9.31392 25.2703 9.4843 25.4352 9.6931 25.4352C9.89997 25.4352 10.0666 25.2742 10.082 25.0538L10.6296 18.8611L10.082 12.9667C10.0685 12.7482 9.89997 12.5853 9.6931 12.5853ZM2.79805 13.416C2.67431 13.416 2.57378 13.5148 2.55638 13.6501L1.9862 18.8573L2.55638 23.9512C2.57185 24.0865 2.67431 24.1853 2.79805 24.1853C2.91985 24.1853 3.01845 24.0884 3.03971 23.9512L3.68919 18.8573L3.03971 13.6501C3.02038 13.5129 2.92178 13.416 2.79805 13.416ZM0.657031 15.4098C0.535231 15.4098 0.438383 15.5049 0.422917 15.6363L0 18.8573L0.422917 22.0254C0.438383 22.1588 0.537165 22.252 0.657031 22.252C0.774965 22.252 0.868036 22.1569 0.88737 22.0254L1.38958 18.8573L0.88737 15.6363C0.86997 15.5049 0.774965 15.4098 0.657031 15.4098Z" fill="black"/>
</svg>
