<svg width="51" height="38" viewBox="0 0 51 38" fill="none" xmlns="http://www.w3.org/2000/svg">
<path d="M49.0822 6.82C48.62 4.26891 46.4178 2.4111 43.8622 1.8311C40.0378 1.02 32.96 0.440002 25.3022 0.440002C17.6489 0.440002 10.4578 1.02 6.62891 1.8311C4.07782 2.4111 1.8711 4.1511 1.40891 6.82C0.942191 9.72 0.480003 13.78 0.480003 19C0.480003 24.22 0.942191 28.28 1.52219 31.18C1.98891 33.7311 4.1911 35.5889 6.74219 36.1689C10.8022 36.98 17.7622 37.56 25.42 37.56C33.0778 37.56 40.0378 36.98 44.0978 36.1689C46.6489 35.5889 48.8511 33.8489 49.3178 31.18C49.78 28.28 50.36 24.1022 50.4778 19C50.2422 13.78 49.6622 9.72 49.0822 6.82ZM19.04 27.12V10.88L33.1911 19L19.04 27.12Z" fill="black"/>
</svg>
