<svg width="49" height="48" viewBox="0 0 49 48" fill="none" xmlns="http://www.w3.org/2000/svg">
<path d="M24.5 0.800003C11.52 0.800003 0.9 11.24 0.9 24C0.9 36.76 11.52 47.2 24.5 47.2C37.48 47.2 48.1 36.76 48.1 24C48.1 11.24 37.48 0.800003 24.5 0.800003ZM33.8043 35.6C33.3716 35.6 33.1553 35.3873 32.7226 35.1747C29.4776 33.2587 25.3673 32.1973 21.0406 32.1973C18.661 32.1973 16.065 32.6227 13.9016 33.048C13.469 33.048 13.0363 33.2607 12.82 33.2607C11.9546 33.2607 11.3056 32.6227 11.3056 31.772C11.3056 30.9213 11.7383 30.2833 12.6036 30.2833C15.416 29.6453 18.2303 29.22 21.2589 29.22C26.2346 29.22 30.7776 30.496 34.6716 32.6227C35.1043 33.048 35.5369 33.2607 35.5369 34.1113C35.1003 35.1747 34.4513 35.6 33.8043 35.6ZM36.182 29.6473C35.7493 29.6473 35.3167 29.4346 34.884 29.2219C31.2063 26.8826 26.0124 25.6066 20.3897 25.6066C17.5773 25.6066 14.9794 26.0319 13.0343 26.4573C12.6017 26.6699 12.3853 26.6699 11.9527 26.6699C10.871 26.6699 10.22 25.8193 10.22 24.9667C10.22 23.9033 10.6527 23.478 11.7344 23.0507C14.3304 22.4127 16.9283 21.7747 20.606 21.7747C26.6633 21.7747 32.288 23.2634 37.0493 26.0281C37.6983 26.4534 38.131 27.0914 38.131 27.7313C37.9127 28.7947 37.2656 29.6473 36.182 29.6473ZM38.9943 22.84C38.5617 22.84 38.3453 22.6273 37.6963 22.4147C33.3697 20.0753 27.096 18.5867 21.0387 18.5867C18.01 18.5867 14.765 19.012 11.9507 19.65C11.518 19.65 11.3017 19.8627 10.6527 19.8627C9.3547 20.0773 8.48937 19.012 8.48937 17.7379C8.48937 16.4639 9.13837 15.822 10.0037 15.6113C13.467 14.7587 17.1447 14.3333 21.0387 14.3333C27.745 14.3333 34.6677 15.822 40.078 18.5867C40.727 19.012 41.376 19.65 41.376 20.7133C41.1596 21.9893 40.2923 22.84 38.9943 22.84Z" fill="black"/>
</svg>
