<svg width="46" height="46" viewBox="0 0 46 46" fill="none" xmlns="http://www.w3.org/2000/svg">
<path d="M35.6222 0.34375H10.3778C4.83603 0.34375 0.34375 4.83603 0.34375 10.3778V35.6222C0.34375 41.164 4.83603 45.6562 10.3778 45.6562H35.6222C41.164 45.6562 45.6562 41.164 45.6562 35.6222V10.3778C45.6562 4.83603 41.164 0.34375 35.6222 0.34375ZM28.1384 34.4586C26.596 34.4586 24.4319 33.5116 24.4319 31.2931C24.4319 29.0746 25.8112 27.7759 27.7596 27.3971C28.5308 27.2476 29.3773 27.0763 30.1186 26.9241C30.9052 26.7628 31.468 26.0713 31.468 25.2683V15.0585C31.468 14.5746 31.0248 14.2121 30.5509 14.3082L18.631 16.7142C18.1543 16.8103 17.8117 17.229 17.8117 17.7157V32.2664C17.8117 34.3508 17.4972 37.4538 12.8554 37.4538C11.3175 37.4538 9.15884 36.5095 9.15884 34.2964C9.15884 32.0833 10.5354 30.7883 12.4775 30.4104C13.3104 30.2482 14.2311 30.0615 15.0123 29.902C15.6784 29.7652 16.1524 29.177 16.1478 28.4973L16.0264 11.613C16.0192 10.6523 16.6952 9.82222 17.6368 9.63372L31.7118 6.80984C32.4323 6.66575 33.1047 7.21222 33.1047 7.94719C33.1056 12.8301 33.1074 28.6958 33.1074 29.2586C33.1074 31.3475 32.792 34.4586 28.1384 34.4586Z" fill="black"/>
</svg>
