<svg width="52" height="27" viewBox="0 0 52 27" fill="none" xmlns="http://www.w3.org/2000/svg">
<path d="M42.24 0.239998V2.56H51.52V0.239998H42.24ZM21.36 3.72V6.04H30.64V3.72H21.36ZM42.24 3.72V6.04H51.52V3.72H42.24ZM21.36 7.2V9.52H30.64V7.2H21.36ZM42.24 7.2V9.52H51.52V7.2H42.24ZM0.480003 10.68V13H9.76V10.68H0.480003ZM21.36 10.68V13H30.64V10.68H21.36ZM31.8 10.68V13H41.08V10.68H31.8ZM42.24 10.68V13H51.52V10.68H42.24ZM0.480003 14.16V16.48H9.76V14.16H0.480003ZM21.36 14.16V16.48H30.64V14.16H21.36ZM31.8 14.16V16.48H41.08V14.16H31.8ZM42.24 14.16V16.48H51.52V14.16H42.24ZM0.480003 17.64V19.96H9.76V17.64H0.480003ZM10.92 17.64V19.96H20.2V17.64H10.92ZM21.36 17.64V19.96H30.64V17.64H21.36ZM31.8 17.64V19.96H41.08V17.64H31.8ZM42.24 17.64V19.96H51.52V17.64H42.24ZM0.480003 21.12V23.44H9.76V21.12H0.480003ZM10.92 21.12V23.44H20.2V21.12H10.92ZM21.36 21.12V23.44H30.64V21.12H21.36ZM31.8 21.12V23.44H41.08V21.12H31.8ZM42.24 21.12V23.44H51.52V21.12H42.24ZM0.480003 24.6V26.92H9.76V24.6H0.480003ZM10.92 24.6V26.92H20.2V24.6H10.92ZM21.36 24.6V26.92H30.64V24.6H21.36ZM31.8 24.6V26.92H41.08V24.6H31.8ZM42.24 24.6V26.92H51.52V24.6H42.24Z" fill="black"/>
</svg>
